<?xml version="1.0" encoding="utf-8"?>
<!-- Generator: Adobe Illustrator 16.0.4, SVG Export Plug-In . SVG Version: 6.00 Build 0)  -->
<!DOCTYPE svg PUBLIC "-//W3C//DTD SVG 1.1//EN" "http://www.w3.org/Graphics/SVG/1.1/DTD/svg11.dtd">
<svg version="1.1" id="Layer_1" xmlns="http://www.w3.org/2000/svg" xmlns:xlink="http://www.w3.org/1999/xlink" x="0px" y="0px"
	 width="28px" height="6.246px" viewBox="0 10.877 28 6.246" enable-background="new 0 10.877 28 6.246" xml:space="preserve">
<g>
	<path fill="#FFFFFF" d="M7.006,12.56c-0.278,0-0.609,0.166-0.895,0.53H6.098v-0.45l-0.046-0.046l-1.06,0.073v0.126
		c0.119,0.006,0.245,0.053,0.325,0.106c0.106,0.073,0.166,0.212,0.179,0.351v1.901c0,0.146-0.053,0.259-0.179,0.298
		c-0.093,0.026-0.172,0.039-0.292,0.047v0.132h1.682v-0.132c-0.126-0.008-0.318-0.033-0.431-0.08
		c-0.119-0.047-0.179-0.152-0.179-0.298v-1.828c0.08-0.146,0.325-0.431,0.663-0.431c0,0.086-0.046,0.139-0.046,0.206
		c0,0.225,0.146,0.318,0.357,0.318c0.225,0,0.351-0.186,0.351-0.417C7.423,12.745,7.211,12.56,7.006,12.56z"/>
	<g>
		<path fill="#FFFFFF" d="M8.587,11.698c0.238,0,0.417-0.199,0.417-0.43c0-0.212-0.172-0.391-0.417-0.391
			c-0.219,0-0.404,0.192-0.404,0.417C8.183,11.513,8.369,11.698,8.587,11.698z"/>
		<path fill="#FFFFFF" d="M8.164,15.447c-0.093,0.026-0.172,0.039-0.292,0.047v0.132h1.543v-0.132
			c-0.086-0.008-0.185-0.033-0.291-0.08c-0.12-0.053-0.179-0.166-0.179-0.305v-2.471l-0.046-0.046l-1.126,0.073v0.125
			c0.12,0.007,0.312,0.073,0.391,0.126c0.106,0.073,0.166,0.192,0.179,0.331v1.901C8.342,15.281,8.289,15.407,8.164,15.447z"/>
	</g>
	<g>
		<path fill="#FFFFFF" d="M13.99,11.698c0.238,0,0.417-0.199,0.417-0.43c0-0.212-0.172-0.391-0.417-0.391
			c-0.219,0-0.404,0.192-0.404,0.417C13.585,11.513,13.771,11.698,13.99,11.698z"/>
		<path fill="#FFFFFF" d="M14.347,15.109v-2.471l-0.046-0.046l-1.126,0.073v0.125c0.12,0.007,0.312,0.073,0.391,0.126
			c0.106,0.073,0.166,0.192,0.179,0.331v1.901c0,0.132-0.053,0.259-0.179,0.298c-0.093,0.026-0.172,0.039-0.292,0.047v0.132h1.543
			v-0.132c-0.086-0.008-0.186-0.033-0.291-0.08C14.407,15.361,14.347,15.248,14.347,15.109z"/>
	</g>
	<path fill="#FFFFFF" d="M18.281,15.123v-1.53c0-0.629-0.285-1.046-0.901-1.046c-0.569,0-0.821,0.298-1.073,0.543h-0.013v-0.451
		l-0.046-0.046l-1.061,0.073v0.125c0.119,0.007,0.245,0.053,0.324,0.106c0.106,0.073,0.166,0.212,0.18,0.351v1.901
		c0,0.146-0.053,0.259-0.18,0.298c-0.092,0.026-0.172,0.039-0.291,0.047v0.132h1.562v-0.132c-0.111-0.008-0.211-0.033-0.311-0.08
		c-0.119-0.053-0.179-0.152-0.179-0.298v-1.809c0.073-0.152,0.345-0.463,0.827-0.463c0.285,0,0.551,0.251,0.551,0.708v1.596
		c0,0.146-0.053,0.259-0.18,0.299c-0.092,0.026-0.191,0.039-0.311,0.047v0.132h1.562v-0.132c-0.119-0.008-0.198-0.033-0.291-0.073
		C18.334,15.367,18.281,15.269,18.281,15.123z"/>
	<path fill="#FFFFFF" d="M21.719,15.348c-0.219,0-0.312-0.238-0.312-0.338c0-0.219,0.033-0.9,0.033-1.483
		c0-0.881-0.483-0.98-1.14-0.98c-0.503,0-1.066,0.305-1.066,0.702c0,0.172,0.08,0.344,0.299,0.344c0.238,0,0.384-0.146,0.384-0.285
		c0-0.146-0.06-0.292-0.06-0.391c0.06-0.073,0.152-0.225,0.404-0.225c0.549,0,0.569,0.55,0.569,0.669v0.371
		c-0.278,0.159-0.735,0.271-1.112,0.417c-0.332,0.126-0.649,0.312-0.649,0.855c0,0.424,0.312,0.701,0.769,0.701
		c0.396,0,0.742-0.178,0.98-0.457h0.02c0.105,0.305,0.271,0.444,0.582,0.444c0.411,0,0.663-0.239,0.703-0.854h-0.146
		C21.957,15.09,21.938,15.348,21.719,15.348z M20.811,15.083c-0.158,0.198-0.305,0.351-0.648,0.351c-0.285,0-0.45-0.165-0.45-0.529
		c0-0.59,0.464-0.775,1.126-0.98L20.811,15.083z"/>
	<path fill="#FFFFFF" d="M12.523,13.142c0.179,0,0.278-0.132,0.278-0.325c0-0.179-0.152-0.318-0.312-0.318
		c-0.256,0-0.545,0.086-0.757,0.261c-0.334-0.212-0.747-0.214-0.747-0.214c-0.656,0-1.186,0.364-1.186,0.974
		c0,0.391,0.285,0.696,0.749,0.881v0.04c-0.219,0.086-0.589,0.212-0.589,0.536c0,0.378,0.437,0.518,0.695,0.59v0.047
		c-0.702,0.02-1.046,0.33-1.046,0.701c0,0.504,0.397,0.809,1.444,0.809c1.139,0,1.662-0.471,1.662-1.08
		c0-0.557-0.457-0.881-0.848-0.9c-0.139-0.007-0.55-0.033-0.742-0.04c-0.325-0.013-0.709,0-0.709-0.324
		c0-0.146,0.113-0.226,0.232-0.285h0.384c0.543,0,1.119-0.364,1.119-0.94c0-0.35-0.142-0.578-0.327-0.727
		c0.097-0.059,0.229-0.108,0.414-0.108C12.238,12.996,12.305,13.142,12.523,13.142z M11.847,15.712
		c0.311,0.1,0.337,0.312,0.337,0.464c0,0.517-0.377,0.775-1.02,0.775c-0.735,0-0.993-0.332-0.993-0.597
		c0-0.411,0.179-0.597,0.649-0.688C11.417,15.666,11.701,15.692,11.847,15.712z M10.973,14.341c-0.331,0-0.55-0.357-0.55-0.828
		c0-0.437,0.12-0.821,0.543-0.821c0.417,0,0.569,0.404,0.569,0.841C11.536,13.957,11.363,14.341,10.973,14.341z"/>
	<path fill="#FFFFFF" d="M27.169,14.824c-0.252,0.404-0.417,0.59-0.935,0.59c-0.708,0-0.986-0.609-0.986-1.464v-0.073h1.974v-0.06
		c0-0.676-0.331-1.271-1.238-1.271c-0.881,0-1.392,0.761-1.392,1.556c0,0.874,0.465,1.603,1.465,1.603c0.556,0,1-0.33,1.231-0.801
		L27.169,14.824z M25.977,12.698c0.504,0,0.604,0.543,0.604,1.02l-1.332,0.014C25.268,13.109,25.56,12.698,25.977,12.698z"/>
	<g>
		<path fill="#FFFFFF" d="M27.725,13.095c-0.153,0-0.273-0.124-0.273-0.273s0.121-0.275,0.275-0.275S28,12.669,28,12.82
			C28,12.97,27.879,13.095,27.725,13.095z M27.727,12.577c-0.139,0-0.243,0.11-0.243,0.245s0.104,0.243,0.241,0.243
			c0.139,0,0.244-0.11,0.244-0.245S27.864,12.577,27.727,12.577z M27.794,12.854l0.071,0.104H27.79l-0.062-0.094h-0.051v0.094
			h-0.064v-0.292h0.129c0.07,0,0.115,0.036,0.115,0.096C27.857,12.811,27.831,12.84,27.794,12.854z M27.74,12.724h-0.062v0.085
			h0.064c0.032,0,0.049-0.018,0.049-0.042C27.791,12.738,27.771,12.724,27.74,12.724z"/>
	</g>
	<g>
		<path fill="#FFFFFF" d="M3.889,15.092c-0.425,0.393-0.955,0.628-1.627,0.628c-0.595,0-1.138-0.216-1.562-0.614
			C0.268,14.7,0,14.145,0,13.432s0.209-1.281,0.634-1.706c0.445-0.451,1.02-0.68,1.654-0.68c0.615,0,1.17,0.203,1.66,0.68
			c0.386,0.386,0.621,0.987,0.621,1.627C4.569,14.033,4.366,14.628,3.889,15.092z M2.288,11.126c-0.928,0-1.497,0.92-1.497,2.273
			c0,1.163,0.477,2.25,1.497,2.25c1.013,0,1.49-1.061,1.49-2.276C3.778,12.308,3.373,11.126,2.288,11.126z"/>
	</g>
	<path fill="#FFFFFF" d="M24.191,14.805c-0.039,0.252-0.066,0.517-0.404,0.517c-0.403,0-0.51-0.245-0.51-0.622V12.93h0.9v-0.285
		h-0.906V11.62l-0.576,0.04v0.986h-0.649v0.285h0.636v1.848c0,0.589,0.258,0.914,0.801,0.914c0.49,0,0.802-0.411,0.855-0.888H24.191
		z"/>
</g>
</svg>
